<?xml version="1.0" encoding="UTF-8"?> <svg xmlns="http://www.w3.org/2000/svg" id="Слой_1" data-name="Слой 1" viewBox="0 0 314.25 33.26"> <defs> <style>.cls-1{fill:#7bf2d2;}.cls-2{fill:#1dac87;}.cls-3{fill:#33dbae;}.cls-4{fill:#161616;}</style> </defs> <title>логотип_основной_rgb</title> <path class="cls-1" d="M196.86,8.42a16.32,16.32,0,0,1,1.09,1.67,17,17,0,0,1,2.16,8.54,17,17,0,0,1-2.16,8.54,16.37,16.37,0,0,1-1.09,1.67l-5.51-5.51a9.25,9.25,0,0,0,1.18-4.7,9.25,9.25,0,0,0-1.18-4.7Z" transform="translate(0 -2)"></path> <path class="cls-2" d="M167,16.39a16.4,16.4,0,0,1,2-6.3,15.56,15.56,0,0,1,5.94-5.94,18,18,0,0,1,17.06,0,16.31,16.31,0,0,1,1.68,1.1l-5.52,5.52-.1-.05a9.91,9.91,0,0,0-9.2,0,8.37,8.37,0,0,0-3.26,3.19,8.6,8.6,0,0,0-1,2.49Z" transform="translate(0 -2)"></path> <path class="cls-3" d="M183.47,35.26a17,17,0,0,1-8.53-2.15A15.56,15.56,0,0,1,169,27.18a16.4,16.4,0,0,1-2-6.3h7.68a8.6,8.6,0,0,0,1,2.49,8.38,8.38,0,0,0,3.26,3.19,9.91,9.91,0,0,0,9.2,0l.1-.05L193.69,32a16.25,16.25,0,0,1-1.68,1.1,17,17,0,0,1-8.53,2.15" transform="translate(0 -2)"></path> <path class="cls-4" d="M204.75,3.53h8.55V27h14.42v6.78h-23Zm26.33,0h8.55V27H254v6.78h-23Zm50.58,23.61v6.6H257.41V3.53h23.7v6.6H265.87v5.09h13.42v6.39H265.87v5.52Zm18-1.42H295v8h-8.55V3.53h13.81a17.22,17.22,0,0,1,7.12,1.36,10.23,10.23,0,0,1,6.3,9.82,10.52,10.52,0,0,1-1.53,5.72,10.36,10.36,0,0,1-4.38,3.82l6.52,9.5H305.1Zm5.4-11a4.12,4.12,0,0,0-1.34-3.28,5.89,5.89,0,0,0-4-1.17H295v8.85h4.75a6,6,0,0,0,4-1.14A4.05,4.05,0,0,0,305,14.7Z" transform="translate(0 -2)"></path> <path class="cls-4" d="M28.75,3.53V33.74H20.2V22H8.55V33.74H0V3.53H8.55V14.88H20.2V3.53ZM55,27.87H42.25l-2.37,5.87H31.16L44.5,3.53h8.42L66.29,33.74H57.4Zm-2.5-6.3L48.64,11.9l-3.88,9.67Zm29.39,4.14H77.26v8H68.71V3.53H82.52a17.23,17.23,0,0,1,7.12,1.36,10.24,10.24,0,0,1,6.3,9.82,10.52,10.52,0,0,1-1.53,5.72A10.36,10.36,0,0,1,90,24.24l6.52,9.5H87.4Zm5.4-11A4.12,4.12,0,0,0,86,11.42a5.89,5.89,0,0,0-4-1.17H77.26v8.85H82A6,6,0,0,0,86,18,4.05,4.05,0,0,0,87.31,14.7ZM100.65,3.53h14.29a20,20,0,0,1,8.8,1.86,14,14,0,0,1,6,5.27,14.83,14.83,0,0,1,2.12,8,14.83,14.83,0,0,1-2.12,8,14,14,0,0,1-6,5.27,20,20,0,0,1-8.8,1.86H100.65Zm13.94,23.39a8.76,8.76,0,0,0,6.24-2.2,7.93,7.93,0,0,0,2.35-6.09,7.93,7.93,0,0,0-2.35-6.09,8.76,8.76,0,0,0-6.24-2.2h-5.4V26.92Zm34.92-1.21h-4.66v8H136.3V3.53h13.81a17.23,17.23,0,0,1,7.12,1.36,10.24,10.24,0,0,1,6.3,9.82A10.52,10.52,0,0,1,162,20.42a10.36,10.36,0,0,1-4.38,3.82l6.52,9.5H155Zm5.39-11a4.12,4.12,0,0,0-1.34-3.28,5.89,5.89,0,0,0-4-1.17h-4.75v8.85h4.75a6,6,0,0,0,4-1.14A4.05,4.05,0,0,0,154.9,14.7Z" transform="translate(0 -2)"></path> </svg> 